<svg width="67" height="51" viewBox="0 0 67 51" fill="none" xmlns="http://www.w3.org/2000/svg">
<g clip-path="url(#clip0_20_32)">
<path d="M7.38615 10.2008C8.5571 4.73929 13.6741 1.03536 19.2302 1.62747V1.62747C23.4525 2.07743 24.2507 7.86572 20.3108 9.46363L20.0415 9.57284C18.9703 10.0073 18.1845 10.9453 17.9459 12.0743L12.1463 39.515C11.2353 43.8253 6.88469 46.4954 2.63007 45.3554V45.3554C1.15509 44.9602 0.250752 43.4813 0.570932 41.9879L7.38615 10.2008Z" fill="#FF3030"/>
<path d="M20.3648 18.6085C18.2429 13.787 22.094 8.44594 27.3515 8.91856L28.3939 9.01227C31.3733 9.2801 31.938 13.3819 29.1439 14.4604L28.5957 14.672C27.4512 15.1137 27.0089 16.4999 27.6879 17.5166V17.5166C30.2119 21.2957 27.8562 26.4181 23.3341 26.9839L20.0171 27.3989C16.4536 27.8447 15.3212 22.7701 18.7327 21.6427L19.0566 21.5357C20.2713 21.1343 20.8784 19.7758 20.3648 18.6085V18.6085Z" fill="#837D7D"/>
<path d="M16.87 40C16.77 40 16.72 39.95 16.72 39.85V32.152C16.72 32.052 16.77 32.002 16.87 32.002H20.188C20.284 32.002 20.364 32.034 20.428 32.098L21.628 33.298C21.696 33.366 21.73 33.446 21.73 33.538V35.608C21.73 35.704 21.696 35.784 21.628 35.848L20.428 37.048C20.364 37.116 20.284 37.15 20.188 37.15H18.718V39.85C18.718 39.95 18.668 40 18.568 40H16.87ZM19.168 35.518C19.5 35.518 19.726 35.452 19.846 35.32C19.97 35.188 20.032 34.938 20.032 34.57C20.032 34.202 19.97 33.952 19.846 33.82C19.726 33.688 19.5 33.622 19.168 33.622C18.84 33.622 18.614 33.688 18.49 33.82C18.37 33.952 18.31 34.202 18.31 34.57C18.31 34.938 18.37 35.188 18.49 35.32C18.614 35.452 18.84 35.518 19.168 35.518ZM22.8046 40C22.7046 40 22.6546 39.95 22.6546 39.85V32.152C22.6546 32.052 22.7046 32.002 22.8046 32.002H26.4646C26.5606 32.002 26.6406 32.034 26.7046 32.098L27.9046 33.298C27.9726 33.366 28.0066 33.446 28.0066 33.538V38.458C28.0066 38.554 27.9726 38.634 27.9046 38.698L26.7046 39.898C26.6406 39.966 26.5606 40 26.4646 40H22.8046ZM24.6586 38.398H25.7566C25.9246 38.398 26.0086 38.286 26.0086 38.062V33.94C26.0086 33.712 25.9246 33.598 25.7566 33.598H24.6586V38.398ZM29.5497 40C29.4497 40 29.3997 39.95 29.3997 39.85V32.152C29.3997 32.052 29.4497 32.002 29.5497 32.002H33.6597C33.7597 32.002 33.8097 32.052 33.8097 32.152V33.448C33.8097 33.548 33.7597 33.598 33.6597 33.598H31.3977V35.602H33.3597C33.4597 35.602 33.5097 35.652 33.5097 35.752V37.048C33.5097 37.148 33.4597 37.198 33.3597 37.198H31.3977V39.85C31.3977 39.95 31.3477 40 31.2477 40H29.5497Z" fill="#FF0D0D"/>
<path d="M40.9659 35.1847L39.5597 35.3381C39.5199 35.196 39.4503 35.0625 39.3509 34.9375C39.2543 34.8125 39.1236 34.7116 38.9588 34.6349C38.794 34.5582 38.5923 34.5199 38.3537 34.5199C38.0327 34.5199 37.7628 34.5895 37.544 34.7287C37.3281 34.8679 37.2216 35.0483 37.2244 35.2699C37.2216 35.4602 37.2912 35.6151 37.4332 35.7344C37.5781 35.8537 37.8168 35.9517 38.1491 36.0284L39.2656 36.267C39.8849 36.4006 40.3452 36.6122 40.6463 36.902C40.9503 37.1918 41.1037 37.571 41.1065 38.0398C41.1037 38.4517 40.983 38.8153 40.7443 39.1307C40.5085 39.4432 40.1804 39.6875 39.7599 39.8636C39.3395 40.0398 38.8565 40.1278 38.3111 40.1278C37.5099 40.1278 36.8651 39.9602 36.3764 39.625C35.8878 39.2869 35.5966 38.8168 35.5028 38.2145L37.0071 38.0696C37.0753 38.3651 37.2202 38.5881 37.4418 38.7386C37.6634 38.8892 37.9517 38.9645 38.3068 38.9645C38.6733 38.9645 38.9673 38.8892 39.1889 38.7386C39.4134 38.5881 39.5256 38.402 39.5256 38.1804C39.5256 37.9929 39.4531 37.8381 39.3082 37.7159C39.1662 37.5937 38.9446 37.5 38.6435 37.4347L37.527 37.2003C36.8991 37.0696 36.4347 36.8494 36.1335 36.5398C35.8324 36.2273 35.6832 35.8324 35.6861 35.3551C35.6832 34.9517 35.7926 34.6023 36.0142 34.3068C36.2386 34.0085 36.5497 33.7784 36.9474 33.6165C37.348 33.4517 37.8097 33.3693 38.3324 33.3693C39.0994 33.3693 39.7031 33.5327 40.1435 33.8594C40.5866 34.1861 40.8608 34.6278 40.9659 35.1847ZM45.2337 40.1278C44.5945 40.1278 44.0405 39.9872 43.5717 39.706C43.103 39.4247 42.7393 39.0312 42.4808 38.5256C42.2251 38.0199 42.0973 37.429 42.0973 36.7528C42.0973 36.0767 42.2251 35.4844 42.4808 34.9759C42.7393 34.4673 43.103 34.0724 43.5717 33.7912C44.0405 33.5099 44.5945 33.3693 45.2337 33.3693C45.8729 33.3693 46.4268 33.5099 46.8956 33.7912C47.3643 34.0724 47.7266 34.4673 47.9822 34.9759C48.2408 35.4844 48.37 36.0767 48.37 36.7528C48.37 37.429 48.2408 38.0199 47.9822 38.5256C47.7266 39.0312 47.3643 39.4247 46.8956 39.706C46.4268 39.9872 45.8729 40.1278 45.2337 40.1278ZM45.2422 38.892C45.5888 38.892 45.8786 38.7969 46.1115 38.6065C46.3445 38.4134 46.5178 38.1548 46.6314 37.831C46.7479 37.5071 46.8061 37.1463 46.8061 36.7486C46.8061 36.348 46.7479 35.9858 46.6314 35.6619C46.5178 35.3352 46.3445 35.0753 46.1115 34.8821C45.8786 34.6889 45.5888 34.5923 45.2422 34.5923C44.8871 34.5923 44.5916 34.6889 44.3558 34.8821C44.1229 35.0753 43.9482 35.3352 43.8317 35.6619C43.718 35.9858 43.6612 36.348 43.6612 36.7486C43.6612 37.1463 43.718 37.5071 43.8317 37.831C43.9482 38.1548 44.1229 38.4134 44.3558 38.6065C44.5916 38.7969 44.8871 38.892 45.2422 38.892ZM51.2219 31.2727V40H49.6793V31.2727H51.2219ZM58.6548 33.4545L56.3239 40H54.6193L52.2884 33.4545H53.9332L55.4375 38.3168H55.5057L57.0142 33.4545H58.6548ZM62.3974 40.1278C61.7411 40.1278 61.1744 39.9915 60.6971 39.7188C60.2227 39.4432 59.8576 39.054 59.6019 38.5511C59.3462 38.0455 59.2184 37.4503 59.2184 36.7656C59.2184 36.0923 59.3462 35.5014 59.6019 34.9929C59.8604 34.4815 60.2212 34.0838 60.6843 33.7997C61.1474 33.5128 61.6914 33.3693 62.3164 33.3693C62.7198 33.3693 63.1005 33.4347 63.4585 33.5653C63.8192 33.6932 64.1374 33.892 64.413 34.1619C64.6914 34.4318 64.9102 34.7756 65.0692 35.1932C65.2283 35.608 65.3079 36.1023 65.3079 36.6761V37.1491H59.9428V36.1094H63.8292C63.8263 35.8139 63.7624 35.5511 63.6374 35.321C63.5124 35.0881 63.3377 34.9048 63.1133 34.7713C62.8917 34.6378 62.6332 34.571 62.3377 34.571C62.0224 34.571 61.7454 34.6477 61.5067 34.8011C61.2681 34.9517 61.082 35.1506 60.9485 35.3977C60.8178 35.642 60.7511 35.9105 60.7482 36.2031V37.1108C60.7482 37.4915 60.8178 37.8182 60.957 38.0909C61.0962 38.3608 61.2908 38.5682 61.5408 38.7131C61.7908 38.8551 62.0835 38.9261 62.4187 38.9261C62.6431 38.9261 62.8462 38.8949 63.0281 38.8324C63.2099 38.767 63.3675 38.6719 63.5011 38.5469C63.6346 38.4219 63.7354 38.267 63.8036 38.0824L65.244 38.2443C65.1531 38.625 64.9798 38.9574 64.7241 39.2415C64.4712 39.5227 64.1474 39.7415 63.7525 39.8977C63.3576 40.0511 62.9059 40.1278 62.3974 40.1278Z" fill="#706A6A"/>
</g>
<defs>
<clipPath id="clip0_20_32">
<rect width="67" height="51" fill="white"/>
</clipPath>
</defs>
</svg>
